<svg width="82" height="60" viewBox="0 0 82 60" fill="none" xmlns="http://www.w3.org/2000/svg">
<path d="M78.3343 44.0541L73.3735 42.6414C73.1594 42.5804 73.0098 42.3828 73.0098 42.1608V40.5103C73.4134 40.2316 73.7984 39.9197 74.1583 39.5715C75.9024 37.8846 76.8628 35.6218 76.8628 33.1999V30.9224L77.3425 29.9664C77.8689 28.9168 78.1471 27.7418 78.1471 26.5685V20.3988C78.1471 19.7376 77.6093 19.2015 76.9459 19.2015H65.387C61.1838 19.2015 57.7642 22.61 57.7642 26.7993V26.8707C57.7642 27.8463 57.9956 28.8234 58.4333 29.696L59.0485 30.9223V32.8777C59.0485 35.9768 60.5807 38.7574 62.9015 40.4307L62.9018 42.1604C62.9018 42.4272 62.9018 42.5377 61.91 42.8202L59.4894 43.5095L52.4872 40.9717C52.5124 40.6423 52.4009 40.3074 52.1598 40.0551L49.9223 37.712V33.7787C50.1589 33.5844 50.392 33.3849 50.618 33.1739C53.4408 30.5368 55.0596 26.8135 55.0596 22.9589V19.8177C55.912 17.969 56.3439 16.0127 56.3439 13.998V1.19723C56.3439 0.536041 55.8061 0 55.1428 0H37.1622C30.8344 0 25.6865 5.13118 25.6865 11.438V13.9984C25.6865 16.0131 26.1184 17.9693 26.9708 19.818V22.5207C26.9708 26.9961 28.9673 31.0281 32.1081 33.6863V37.7122L29.8706 40.0552C29.6295 40.3076 29.5181 40.6425 29.5432 40.9718L22.1528 43.6503C21.6173 43.8444 21.1196 44.1073 20.6678 44.4258L19.5074 43.8474C22.9619 42.3486 24.0563 40.2407 24.1088 40.136C24.2779 39.799 24.2779 39.4022 24.1088 39.0652C23.2428 37.3389 23.1379 34.1749 23.0537 31.6326C23.0257 30.7863 22.9991 29.9867 22.9483 29.2747C22.5388 23.5322 18.1588 19.2015 12.76 19.2015C7.3611 19.2015 2.98099 23.532 2.57163 29.2747C2.52086 29.9868 2.49427 30.7864 2.46625 31.6329C2.382 34.1751 2.27694 37.3388 1.41114 39.065C1.24201 39.402 1.24201 39.7989 1.41114 40.1358C1.46367 40.2406 2.55577 42.3442 6.01723 43.8447L2.79377 45.4511C1.07048 46.3105 0 48.0369 0 49.9571V58.8021C0 59.4633 0.537805 59.9994 1.20117 59.9994C1.86454 59.9994 2.40234 59.4633 2.40234 58.8021V49.9571C2.40234 48.9495 2.96401 48.0436 3.86809 47.593L7.88209 45.5927L9.27833 46.9152C10.2546 47.8399 11.5071 48.3021 12.76 48.3021C14.0126 48.3021 15.2656 47.8396 16.2416 46.9152L17.6377 45.5928L18.9465 46.2451C18.3302 47.2279 17.9804 48.3805 17.9804 49.5877V58.8024C17.9804 59.4636 18.5182 59.9997 19.1816 59.9997C19.845 59.9997 20.3828 59.4636 20.3828 58.8024V49.5877C20.3828 47.9442 21.4239 46.4625 22.9738 45.9008L30.7657 43.0767L34.0093 47.9265C34.424 48.5465 35.0885 48.9441 35.8324 49.0175C35.9154 49.0257 35.9978 49.0297 36.0802 49.0297C36.7365 49.0297 37.3651 48.7722 37.835 48.304L39.8139 46.3316V58.8026C39.8139 59.4638 40.3517 59.9998 41.0151 59.9998C41.6784 59.9998 42.2162 59.4638 42.2162 58.8026V46.3316L44.1951 48.304C44.6649 48.7724 45.2935 49.0298 45.95 49.0298C46.0321 49.0298 46.1147 49.0258 46.1976 49.0177C46.9416 48.9443 47.6061 48.5466 48.0208 47.9266L51.2646 43.077L59.0563 45.9011C60.606 46.4628 61.6473 47.9445 61.6473 49.5881V58.8028C61.6473 59.464 62.1852 60 62.8485 60C63.5119 60 64.0497 59.464 64.0497 58.8028V49.5881C64.0497 47.9234 63.3862 46.3622 62.2731 45.2076L62.5698 45.1232C62.8692 45.0379 63.2776 44.9213 63.6876 44.7209L66.7544 47.7777V58.8028C66.7544 59.464 67.2922 60 67.9556 60C68.6189 60 69.1568 59.464 69.1568 58.8028V47.7777L72.2023 44.7422C72.3642 44.8242 72.5343 44.8935 72.7133 44.9444L77.6743 46.3571C78.8066 46.6796 79.5977 47.7247 79.5977 48.8986V58.8028C79.5977 59.464 80.1355 60 80.7988 60C81.4622 60 82 59.464 82 58.8028V48.8986C82 46.6609 80.4926 44.6689 78.3343 44.0541ZM7.70592 41.9395C5.45909 41.1337 4.33207 40.0594 3.85096 39.4727C4.17896 38.6181 4.39164 37.6392 4.53562 36.6059C5.19803 38.189 6.30743 39.5404 7.70592 40.5046V41.9395ZM14.587 45.1797C13.5625 46.1499 11.9576 46.1498 10.9334 45.1795L9.8163 44.1215C10.0048 43.7695 10.1084 43.3704 10.1084 42.9524V41.6763C10.9464 41.9373 11.8371 42.0781 12.7603 42.0781C13.6823 42.0781 14.5726 41.9366 15.412 41.6771L15.4118 42.9522C15.4118 43.3704 15.5153 43.7697 15.704 44.1218L14.587 45.1797ZM12.7606 39.6836C9.17375 39.6836 6.25586 36.7751 6.25586 33.2002C6.25586 32.539 5.71806 32.003 5.05469 32.003C4.98743 32.003 4.92176 32.0098 4.85754 32.0205C4.86106 31.9176 4.86443 31.8144 4.86795 31.7124C4.8947 30.8892 4.92048 30.1117 4.96805 29.4447C5.12148 27.2935 5.98392 25.3112 7.3965 23.8627C8.82173 22.4012 10.7266 21.5963 12.7603 21.5963C14.794 21.5963 16.6987 22.4012 18.1241 23.8627C19.5367 25.3112 20.3991 27.2935 20.5525 29.4447C20.5999 30.1115 20.6259 30.8889 20.6531 31.712C20.6555 31.7827 20.6579 31.8544 20.6603 31.9255C19.3534 29.9187 17.3352 28.4397 14.7273 27.6045C12.3181 26.833 10.246 26.8807 10.1586 26.883C9.844 26.8917 9.54547 27.023 9.32718 27.2487L7.15995 29.4889C6.6995 29.965 6.71327 30.7229 7.19086 31.1818C7.66844 31.6408 8.42886 31.6269 8.88931 31.151L10.6927 29.287C12.2457 29.3627 17.2421 29.9418 19.1853 34.2067C18.6963 37.3495 15.9862 39.6836 12.7606 39.6836ZM17.814 41.9435L17.8142 40.5156C19.2115 39.5567 20.3225 38.2078 20.9854 36.6128C21.1294 37.6437 21.3419 38.6203 21.6693 39.4731C21.1909 40.0541 20.0586 41.138 17.814 41.9435ZM29.3731 22.5206V19.5502C29.3731 19.3699 29.3323 19.1919 29.2537 19.0296C28.4807 17.4342 28.0888 15.7415 28.0888 13.9984V11.4382C28.0888 6.45148 32.1592 2.39462 37.1622 2.39462H53.9416V13.9985C53.9416 15.7417 53.5497 17.4344 52.7768 19.0298C52.6981 19.1921 52.6573 19.3701 52.6573 19.5503V22.9592C52.6573 26.2015 51.3496 29.2088 48.9751 31.4272C48.6787 31.704 48.371 31.9635 48.053 32.2054C48.0459 32.2102 48.0392 32.2154 48.0323 32.2204C45.8079 33.9037 43.0833 34.7218 40.238 34.5381C34.1455 34.1449 29.3731 28.8662 29.3731 22.5206ZM36.1364 46.6106C36.128 46.6189 36.1087 46.6386 36.0694 46.6344C36.0304 46.6306 36.015 46.6078 36.0084 46.5979L32.2728 41.0127L33.4749 39.7537L39.142 43.6147L36.1364 46.6106ZM41.0152 41.9904L34.5105 37.5588V35.3239C36.1936 36.2308 38.0781 36.798 40.0825 36.9273C40.3991 36.9477 40.7138 36.9577 41.0275 36.9577C43.3243 36.9577 45.5348 36.4105 47.52 35.3718V37.5588L41.0152 41.9904ZM46.022 46.5982C46.0155 46.6081 46.0001 46.6309 45.961 46.6347C45.9218 46.6397 45.9025 46.6191 45.8941 46.611L42.8884 43.6152L48.5555 39.754L49.7578 41.013L46.022 46.5982ZM67.9556 45.588L65.2297 42.8713C65.2773 42.6559 65.3042 42.4202 65.304 42.1601L65.3039 41.6549C66.0603 41.9023 66.8575 42.0492 67.6825 42.0738C67.7751 42.0766 67.8669 42.0779 67.9591 42.0779C68.8707 42.0779 69.7605 41.9406 70.6074 41.6787V42.1608C70.6074 42.3996 70.6376 42.6336 70.6943 42.8585L67.9556 45.588ZM72.4853 37.8533C71.2122 39.0847 69.5304 39.735 67.7547 39.6804C64.2787 39.5765 61.4508 36.5248 61.4508 32.8781V30.6399C61.4508 30.4539 61.4074 30.2706 61.324 30.1045L60.582 28.6253C60.3102 28.0834 60.1665 27.4768 60.1665 26.8708V26.7995C60.1665 23.9303 62.5085 21.5961 65.387 21.5961H75.7448V26.5686C75.7448 27.3722 75.5542 28.1769 75.1937 28.8958L74.5873 30.1045C74.5039 30.2708 74.4605 30.4539 74.4605 30.6399V33.2C74.4605 34.9687 73.759 36.6213 72.4853 37.8533Z" fill="#6E1F8A"/>
<path d="M72.3456 27.0077C69.5554 25.6173 64.3239 25.6012 64.1025 25.6012C63.4392 25.6012 62.9014 26.1372 62.9014 26.7984C62.9014 27.4596 63.4392 27.9957 64.1025 27.9957C65.4525 27.9958 69.372 28.203 71.2713 29.1495C71.4438 29.2355 71.627 29.2761 71.8075 29.2761C72.2481 29.2761 72.6723 29.0334 72.8828 28.6141C73.1796 28.0226 72.939 27.3035 72.3456 27.0077Z" fill="#6E1F8A"/>
<path d="M75.6621 49.9238C74.9987 49.9238 74.4609 50.4599 74.4609 51.1211V58.8017C74.4609 59.4629 74.9987 59.9989 75.6621 59.9989C76.3255 59.9989 76.8633 59.4629 76.8633 58.8017V51.1211C76.8633 50.46 76.3255 49.9238 75.6621 49.9238Z" fill="#6E1F8A"/>
<path d="M6.33789 51.5066C5.67452 51.5066 5.13672 52.0426 5.13672 52.7038V58.8019C5.13672 59.4631 5.67452 59.9991 6.33789 59.9991C7.00126 59.9991 7.53906 59.4631 7.53906 58.8019V52.7038C7.53906 52.0428 7.00126 51.5066 6.33789 51.5066Z" fill="#6E1F8A"/>
<path d="M50.8548 14.432C46.3118 9.90386 36.8067 10.7695 32.9306 11.3519C31.7097 11.5353 30.8237 12.5651 30.8237 13.8004V16.5585C30.8237 17.2197 31.3615 17.7558 32.0249 17.7558C32.6883 17.7558 33.2261 17.2197 33.2261 16.5585V13.8003C33.2261 13.7596 33.253 13.7248 33.2889 13.7194C34.8371 13.4868 37.9094 13.1279 41.0925 13.3394C44.8382 13.588 47.5513 14.5252 49.1562 16.125C49.6253 16.5926 50.3859 16.5926 50.8548 16.125C51.3239 15.6574 51.3239 14.8993 50.8548 14.432Z" fill="#6E1F8A"/>
<path d="M26.8882 52.4845C26.2248 52.4845 25.687 53.0205 25.687 53.6817V58.8022C25.687 59.4634 26.2248 59.9994 26.8882 59.9994C27.5516 59.9994 28.0894 59.4634 28.0894 58.8022V53.6817C28.0894 53.0207 27.5516 52.4845 26.8882 52.4845Z" fill="#6E1F8A"/>
<path d="M55.1421 52.4845C54.4787 52.4845 53.9409 53.0205 53.9409 53.6817V58.8022C53.9409 59.4634 54.4787 59.9994 55.1421 59.9994C55.8055 59.9994 56.3433 59.4634 56.3433 58.8022V53.6817C56.3433 53.0207 55.8055 52.4845 55.1421 52.4845Z" fill="#6E1F8A"/>
</svg>
