<svg width="34" height="22" viewBox="0 0 34 22" fill="none" xmlns="http://www.w3.org/2000/svg">
<path d="M18.3467 22H0.653397C0.468159 22 0.291796 21.9213 0.167857 21.7833C0.043918 21.6455 -0.0157068 21.4614 0.00355404 21.2769L1.67204 5.35381C1.70705 5.02046 1.98742 4.76735 2.32189 4.76735H16.6782C17.0125 4.76735 17.2931 5.02046 17.3279 5.35381L18.9964 21.2769C19.0158 21.4614 18.956 21.6455 18.8323 21.7833C18.7082 21.9213 18.5318 22 18.3467 22Z" fill="#6E1F8A"/>
<path d="M17.3279 5.35381C17.2931 5.02046 17.0125 4.76735 16.6782 4.76735H9.49982V22H18.3467C18.5318 22 18.7082 21.9213 18.8323 21.7833C18.956 21.6455 19.0158 21.4614 18.9964 21.2769L17.3279 5.35381Z" fill="#6E1F8A"/>
<path d="M12.8889 8.17447C12.528 8.17447 12.2355 7.88141 12.2355 7.5197V4.05081C12.2355 2.53935 11.0084 1.30954 9.49998 1.30954C7.99161 1.30954 6.76461 2.53935 6.76461 4.05081V7.51987C6.76461 7.88141 6.47202 8.17464 6.11125 8.17464C5.75032 8.17464 5.45789 7.88141 5.45789 7.51987V4.05081C5.45789 1.81728 7.27109 0 9.49998 0C11.7289 0 13.5422 1.81728 13.5422 4.05081V7.51987C13.5422 7.88141 13.2496 8.17447 12.8889 8.17447Z" fill="#6E1F8A"/>
<path d="M9.49998 0V1.30954C11.0084 1.30954 12.2355 2.53935 12.2355 4.05081V7.5197C12.2355 7.88141 12.528 8.17447 12.8889 8.17447C13.2496 8.17447 13.5422 7.88141 13.5422 7.51987V4.05081C13.5422 1.81728 11.7289 0 9.49998 0Z" fill="#6E1F8A"/>
<path d="M24 12.1111L27.3355 16L33 9" stroke="#6E1F8A" stroke-width="1.5"/>
</svg>
