<svg width="66" height="66" viewBox="0 0 66 66" fill="none" xmlns="http://www.w3.org/2000/svg">
<path d="M62.7 54.78C56.1348 51.2985 51.099 49.3463 46.6161 48.5979L47.08 47.9601C47.3001 47.74 47.41 47.41 47.3001 47.08L46.2692 42.9567C46.6428 42.4286 46.9952 41.8825 47.3254 41.3212C51.4246 39.926 53.4975 37.5677 53.8458 34.0954C55.6464 34.0016 57.2 32.3945 57.2 30.58V22.33C57.2 20.5238 55.763 18.9232 53.8806 18.8161C53.6384 12.4615 50.8365 0 33 0C15.1631 0 12.3615 12.462 12.1193 18.8164C10.3335 18.9219 8.80004 20.4212 8.80004 22.3299V30.5799C8.80004 32.45 10.45 34.1 12.43 34.1H14.08C14.6864 34.1 15.2692 33.9257 15.7768 33.6274C16.4006 36.9383 17.7772 40.1949 19.7309 42.9566L18.7 47.0799C18.7 47.3 18.7 47.63 18.9201 47.96L19.384 48.5978C14.9012 49.3463 9.86532 51.2984 3.30013 54.7799C1.21004 55.77 0 57.86 0 60.17V64.8999C0 65.56 0.439957 66 1.09996 66H27.5H27.9399H38.06H38.4999H64.8999C65.5599 66 65.9999 65.56 65.9999 64.9V60.1701C66 57.97 64.68 55.88 62.7 54.78ZM33.0061 52.2639L35.64 58.3H30.3233L33.0061 52.2639ZM29.524 60.5H36.4717L37.1156 63.8H28.8639L29.524 60.5ZM44.55 45.1L44.99 47.08L43.8663 48.6229C43.7946 48.6816 43.7282 48.7526 43.67 48.84L39.0944 55.1754L37.6427 57.1688L34.6772 50.4964C38.294 50.0553 41.5149 48.212 44.0973 45.5707C44.2499 45.4168 44.401 45.2604 44.55 45.1ZM48.8453 38.2573C49.4657 36.7477 49.9334 35.1785 50.2291 33.5968C50.6479 33.8505 51.1247 34.02 51.6388 34.0775C51.4482 35.6324 50.7574 37.1004 48.8453 38.2573ZM54.89 22.22V30.47C54.89 31.13 54.3399 31.79 53.57 31.79H51.92C51.26 31.79 50.6 31.2399 50.6 30.47V29.7V22.22C50.6 21.56 51.15 20.9 51.92 20.9H53.57C54.23 20.9 54.89 21.45 54.89 22.22ZM33 2.20004C39.7801 2.20004 51.191 4.41336 51.6816 18.8279C51.2206 18.8752 50.7791 19.0153 50.3798 19.2306C49.0412 10.8542 41.7382 4.39996 33 4.39996C24.263 4.39996 16.9607 10.8524 15.6207 19.227C15.2273 19.0146 14.788 18.8742 14.3183 18.8275C14.8091 4.41336 26.22 2.20004 33 2.20004ZM15.29 30.47C15.29 31.13 14.7399 31.79 13.97 31.79H12.32C11.66 31.79 11 31.2399 11 30.47V22.22C11 21.56 11.55 20.9 12.32 20.9H13.97C14.63 20.9 15.29 21.45 15.29 22.22V30.47ZM17.6 22C17.6 13.53 24.53 6.6 33 6.6C41.47 6.6 48.4 13.53 48.4 22V29.7C48.4 33.3393 47.4526 36.6711 45.9165 39.4823C43.291 40.2439 39.5139 40.7 34.1001 40.7C33.4401 40.7 33.0001 41.1399 33.0001 41.7999C33.0001 42.4599 33.4401 42.8999 34.1001 42.8999C38.0633 42.8999 41.3779 42.6565 44.0923 42.1477C44.0248 42.2151 43.9574 42.2825 43.89 42.35C43.3366 43.0878 42.7525 43.7606 42.1423 44.3672C39.5522 46.7802 36.4629 48.2419 33.486 48.3866C33.3362 48.3223 33.1682 48.29 33 48.29C32.8309 48.29 32.6785 48.3231 32.5419 48.3881C30.7196 48.3045 28.8548 47.7269 27.0871 46.739C25.2962 45.71 23.6115 44.2267 22.11 42.35C22 42.24 21.89 42.1299 21.78 42.02L21.7158 41.9986C19.2454 38.7586 17.6 34.4963 17.6 29.7V22ZM31.3227 50.4964L28.3572 57.1688L26.9054 55.1754L22.3299 48.84C22.2949 48.8049 22.2562 48.7703 22.216 48.7361L21.0099 47.08L21.4499 45.1C21.5988 45.2604 21.7498 45.4166 21.9022 45.5704C24.4847 48.2117 27.7058 50.0552 31.3227 50.4964ZM2.20004 60.17C2.20004 58.74 2.97 57.42 4.29 56.76C11.3016 53.0351 16.3489 51.1656 20.8452 50.6072L27.4093 59.6329L26.576 63.8H2.20004V60.17ZM63.8 63.8H39.424L38.5907 59.6329L45.226 50.5093C49.7064 51.1854 54.8443 53.0536 61.7101 56.6499C63.0301 57.4199 63.8001 58.7399 63.8001 60.17V63.8H63.8Z" fill="#6E1F8A"/>
</svg>
