<svg width="88" height="65" viewBox="0 0 88 65" fill="none" xmlns="http://www.w3.org/2000/svg">
<path d="M71.2421 20.5663H65.7019L67.3711 1.40062C67.3742 1.3659 67.3747 1.33169 67.3749 1.29749C67.3749 1.29457 67.3753 1.29182 67.3753 1.2889C67.3753 1.28838 67.3753 1.28804 67.3753 1.28752C67.3753 0.765879 67.0606 0.306111 66.598 0.10622C66.5941 0.104501 66.5903 0.102439 66.5864 0.10072C66.5576 0.0886889 66.5279 0.0783758 66.498 0.068407C66.4868 0.0647976 66.4762 0.0603286 66.465 0.0568911C66.4406 0.0495004 66.4155 0.0436567 66.3906 0.0376411C66.3731 0.0335161 66.3562 0.028532 66.3385 0.0250945C66.3167 0.0207976 66.294 0.018048 66.2717 0.0147824C66.2507 0.0116886 66.2301 0.00807869 66.2089 0.00618806C66.2053 0.00584431 66.202 0.00515625 66.1984 0.0048125C66.1757 0.00274999 66.1534 0.00309385 66.1309 0.00223447C66.1158 0.00171884 66.101 0 66.0858 0H66.0697C66.0683 0 66.0669 0 66.0657 0H39.705C38.9934 0 38.4159 0.577502 38.4159 1.28907C38.4159 1.99891 38.9934 2.57814 39.705 2.57814H64.6808L62.1154 32.0333C62.115 32.0356 62.115 32.0378 62.1147 32.04L61.4674 39.4721H16.675L17.4242 31.738H25.9529C26.665 31.738 27.242 31.1609 27.242 30.449C27.242 29.7371 26.665 29.1599 25.9529 29.1599H17.6741L19.2561 12.8326H32.83C33.5421 12.8326 34.119 12.2554 34.119 11.5435C34.119 10.8316 33.5421 10.2544 32.83 10.2544H19.506L20.2499 2.57814H34.5487C35.2586 2.57814 35.8378 1.99891 35.8378 1.28907C35.8378 0.577502 35.2586 0 34.5487 0H19.0799C19.0792 0 19.0787 0.000171781 19.078 0.000171781C18.4725 -9.44223e-08 17.9473 0.426253 17.8202 1.01716C17.8194 1.02146 17.8178 1.02558 17.817 1.02988C17.8104 1.06202 17.8061 1.09485 17.8018 1.12785C17.8006 1.13833 17.7984 1.1483 17.7974 1.15879C17.7972 1.16085 17.7967 1.16274 17.7965 1.1648L16.9158 10.2544H1.28907C0.576987 10.2544 0 10.8316 0 11.5435C0 12.2554 0.576987 12.8326 1.28907 12.8326H16.6659L15.084 29.1599H10.4848C9.77268 29.1599 9.19569 29.7371 9.19569 30.449C9.19569 31.1609 9.77268 31.738 10.4848 31.738H14.8342L13.9728 40.6276C13.9726 40.629 13.9726 40.6304 13.9725 40.6316L12.6406 54.378C12.6404 54.3796 12.6403 54.3813 12.6401 54.3827L12.6396 54.3876C12.6378 54.4055 12.638 54.4231 12.637 54.4409C12.6358 54.4646 12.6334 54.4879 12.6334 54.5119C12.6334 54.5129 12.6335 54.514 12.6335 54.5152C12.6335 54.5484 12.636 54.581 12.6384 54.6137C12.6394 54.6242 12.639 54.6348 12.6403 54.6451C12.6437 54.6785 12.6494 54.7113 12.6554 54.7439C12.6571 54.7536 12.658 54.7634 12.6598 54.7728C12.6648 54.7976 12.6719 54.8215 12.6784 54.8457C12.6829 54.8627 12.6865 54.8801 12.6916 54.8967C12.6932 54.9014 12.6953 54.9059 12.6966 54.9107C12.759 55.1025 12.8649 55.2747 13.0031 55.4153C13.0057 55.4179 13.0077 55.4208 13.0103 55.4232C13.0241 55.437 13.039 55.4493 13.0534 55.4624C13.1423 55.5439 13.2427 55.613 13.3525 55.6671C13.3754 55.6784 13.3979 55.6903 13.4213 55.7001C13.4283 55.7032 13.4359 55.7052 13.4431 55.708C13.4754 55.7209 13.5079 55.7333 13.5414 55.7437C13.5445 55.7446 13.5474 55.7451 13.5505 55.7462C13.5887 55.7575 13.6272 55.7675 13.6665 55.7755C13.6717 55.7766 13.677 55.7769 13.682 55.778C13.7195 55.785 13.7571 55.791 13.7954 55.7948C13.7963 55.7948 13.797 55.795 13.7978 55.7951C13.8401 55.7993 13.8821 55.8013 13.9236 55.8013C13.9242 55.8013 13.9249 55.8012 13.9255 55.8012H19.6641C20.2978 60.6056 24.4168 64.3267 29.3918 64.3267C34.3664 64.3267 38.4854 60.6056 39.1191 55.8012H59.7955C60.4294 60.6056 64.5483 64.3267 69.523 64.3267C74.4976 64.3267 78.617 60.6056 79.2508 55.8012H84.9908C84.9917 55.8012 84.9927 55.8013 84.9936 55.8013C85.0365 55.8013 85.0788 55.7988 85.1207 55.7946C85.1283 55.7939 85.1355 55.7924 85.1431 55.7915C85.1766 55.7876 85.2099 55.7829 85.2426 55.7764C85.2567 55.7737 85.2703 55.7699 85.2842 55.7666C85.3095 55.7608 85.3349 55.7546 85.3596 55.7472C85.3765 55.7422 85.3928 55.7364 85.4093 55.7307C85.4305 55.7235 85.4516 55.7159 85.4724 55.7075C85.4903 55.7004 85.5073 55.6927 85.5247 55.685C85.5436 55.6762 85.5625 55.6673 85.5808 55.6578C85.5984 55.6489 85.6152 55.6396 85.6321 55.63C85.6498 55.6197 85.6673 55.609 85.6847 55.598C85.7008 55.5877 85.717 55.5772 85.7324 55.5662C85.75 55.554 85.7666 55.5411 85.7837 55.528C85.7978 55.5169 85.812 55.5059 85.8258 55.4942C85.8435 55.4792 85.8601 55.4636 85.877 55.4476C85.8887 55.4364 85.9009 55.4254 85.9122 55.4137C85.9301 55.3955 85.9471 55.3763 85.9641 55.3569C85.9732 55.3464 85.9827 55.3362 85.9915 55.3256C86.0104 55.3022 86.0276 55.2781 86.0447 55.2539C86.0506 55.2455 86.0571 55.2376 86.0628 55.229C86.0838 55.1975 86.1035 55.1652 86.1217 55.1319C86.1231 55.1298 86.1245 55.1279 86.1254 55.1257C86.1448 55.0899 86.1627 55.0533 86.1786 55.0155C86.1831 55.0047 86.1865 54.9935 86.1908 54.9827C86.2013 54.956 86.2116 54.9294 86.2204 54.9017C86.2261 54.8839 86.2302 54.8655 86.2352 54.8474C86.2409 54.8259 86.2469 54.8046 86.2517 54.7828C86.256 54.7634 86.2587 54.7434 86.262 54.7237C86.2649 54.7063 86.2687 54.6893 86.2709 54.6716C86.3256 54.2336 87.335 46.135 87.7858 40.8983C87.7864 40.8933 87.7865 40.8882 87.787 40.8832C87.9168 39.3736 88 38.1024 88 37.3242C88 28.084 80.4825 20.5663 71.2421 20.5663ZM65.4772 23.1448H70.7509L70.0773 30.8785H64.8037L65.4772 23.1448ZM29.3921 61.7484C25.4017 61.7484 22.1553 58.502 22.1553 54.5117C22.1553 50.5215 25.4018 47.2751 29.3921 47.2751C33.3824 47.2751 36.6288 50.5215 36.6288 54.5117C36.6288 58.502 33.3824 61.7484 29.3921 61.7484ZM69.523 61.7484C65.5328 61.7484 62.2865 58.502 62.2865 54.5117C62.2865 50.5215 65.5329 47.2751 69.523 47.2751C73.5135 47.2751 76.7598 50.5215 76.7598 54.5117C76.7598 58.502 73.5135 61.7484 69.523 61.7484ZM83.8518 53.2222H79.2512C78.6177 48.4174 74.4985 44.6961 69.5234 44.6961C64.5486 44.6961 60.4294 48.4175 59.7959 53.2222H39.1196C38.4861 48.4174 34.3671 44.6961 29.3921 44.6961C24.4172 44.6961 20.2978 48.4175 19.6643 53.2222H15.3427L16.4253 42.0496H62.6487V42.0502C62.6494 42.0502 62.6499 42.0502 62.6506 42.0502C62.6937 42.0502 62.7365 42.0478 62.7788 42.0435C62.7867 42.0429 62.7944 42.0411 62.8023 42.0401C62.836 42.0361 62.8695 42.0313 62.9025 42.0248C62.9168 42.0219 62.9307 42.0179 62.9448 42.0145C62.9706 42.0083 62.9964 42.0023 63.0215 41.9947C63.0387 41.9896 63.055 41.9834 63.0717 41.9775C63.0933 41.97 63.115 41.9626 63.1359 41.954C63.154 41.9466 63.1714 41.9384 63.1889 41.9301C63.208 41.9213 63.227 41.9126 63.2454 41.9029C63.263 41.8937 63.2802 41.8837 63.2975 41.8737C63.3152 41.8634 63.3327 41.8529 63.3499 41.8419C63.3666 41.8311 63.3824 41.8198 63.3984 41.8084C63.4154 41.7964 63.4319 41.784 63.4484 41.7711C63.4632 41.7593 63.4778 41.7471 63.4922 41.7345C63.5086 41.7204 63.5246 41.706 63.54 41.691C63.5531 41.6785 63.5662 41.6656 63.5789 41.6523C63.5943 41.6362 63.6093 41.6195 63.6241 41.6025C63.6356 41.5891 63.6469 41.5757 63.6579 41.5619C63.6722 41.5439 63.6858 41.5253 63.6992 41.5066C63.7093 41.4925 63.7191 41.4784 63.7287 41.464C63.7413 41.4445 63.7533 41.4246 63.7648 41.4043C63.7736 41.3892 63.7825 41.3741 63.7905 41.3586C63.8013 41.3383 63.8106 41.3177 63.8204 41.2969C63.8279 41.2802 63.8357 41.2639 63.8425 41.2467C63.851 41.2264 63.858 41.2056 63.8654 41.1848C63.8717 41.1665 63.8784 41.1481 63.8841 41.1292C63.8898 41.1092 63.8944 41.0888 63.8996 41.0685C63.9046 41.048 63.9101 41.0278 63.914 41.007C63.918 40.9867 63.9204 40.966 63.9235 40.9454C63.9266 40.9241 63.9302 40.9031 63.9322 40.8815C63.9326 40.8784 63.9333 40.8755 63.9335 40.8724L64.5795 33.4559H71.2418C75.1913 33.4559 76.9726 35.5023 78.8583 37.669C80.4143 39.4566 82.1514 41.4513 85.1042 41.9378C84.7292 45.903 84.123 50.9933 83.8518 53.2222ZM85.3246 39.3545C83.409 38.964 82.2305 37.6174 80.8027 35.977C79.0171 33.9257 76.8372 31.4223 72.6584 30.9558L73.3253 23.2991C80.1597 24.3099 85.4219 30.2135 85.4219 37.3245C85.4219 37.8077 85.3858 38.5096 85.3246 39.3545Z" fill="#6E1F8A"/>
<path d="M29.3921 49.7852C26.786 49.7852 24.6655 51.9054 24.6655 54.5117C24.6655 57.1181 26.786 59.2383 29.3921 59.2383C31.9983 59.2383 34.1187 57.1181 34.1187 54.5117C34.1187 51.9056 31.9983 49.7852 29.3921 49.7852ZM29.3921 56.6602C28.2074 56.6602 27.2437 55.6965 27.2437 54.5117C27.2437 53.327 28.2074 52.3633 29.3921 52.3633C30.5768 52.3633 31.5406 53.327 31.5406 54.5117C31.5406 55.6965 30.5767 56.6602 29.3921 56.6602Z" fill="#6E1F8A"/>
<path d="M69.523 49.7852C66.9168 49.7852 64.7964 51.9054 64.7964 54.5117C64.7964 57.1181 66.9168 59.2383 69.523 59.2383C72.1291 59.2383 74.2495 57.1181 74.2495 54.5117C74.2495 51.9056 72.1291 49.7852 69.523 49.7852ZM69.523 56.6602C68.3382 56.6602 67.3745 55.6965 67.3745 54.5117C67.3745 53.327 68.3382 52.3633 69.523 52.3633C70.7077 52.3633 71.6714 53.327 71.6714 54.5117C71.6714 55.6965 70.7077 56.6602 69.523 56.6602Z" fill="#6E1F8A"/>
<path d="M12.2034 20.567H5.90137C5.18929 20.567 4.6123 21.1442 4.6123 21.8561C4.6123 22.568 5.18929 23.1451 5.90137 23.1451H12.2034C12.9154 23.1451 13.4924 22.568 13.4924 21.8561C13.4924 21.1442 12.9154 20.567 12.2034 20.567Z" fill="#6E1F8A"/>
</svg>
