<svg width="70" height="70" viewBox="0 0 70 70" fill="none" xmlns="http://www.w3.org/2000/svg">
<g clip-path="url(#clip0)">
<path d="M61.7274 26.0395C62.793 24.1384 62.4192 21.7781 60.8182 20.2993C60.1475 19.6797 59.8417 18.7387 60.0202 17.8433C60.4462 15.7061 59.3612 13.5767 57.3818 12.6651C56.5525 12.2832 55.9709 11.4826 55.864 10.5759C55.6086 8.41163 53.9187 6.72165 51.7545 6.46653C50.8478 6.35961 50.0473 5.77788 49.6653 4.94854C48.7536 2.96913 46.624 1.8844 44.4872 2.31014C43.5915 2.4887 42.6507 2.18272 42.0312 1.51211C40.5526 -0.0887263 38.1918 -0.462379 36.291 0.602934C35.4945 1.04932 34.5051 1.04946 33.7087 0.602934C31.8076 -0.462379 29.4474 -0.0887263 27.9686 1.51211C27.3491 2.18272 26.4081 2.48911 25.5125 2.31014C23.3752 1.88454 21.2461 2.96913 20.3343 4.94854C19.9525 5.77788 19.1518 6.35948 18.2453 6.46639C16.081 6.72165 14.391 8.41149 14.1358 10.5759C14.0289 11.4826 13.4471 12.2831 12.6179 12.6649C10.6385 13.5766 9.55337 15.706 9.97952 17.8432C10.1581 18.7387 9.85223 19.6797 9.18149 20.2992C7.58065 21.7778 7.20672 24.1384 8.27231 26.0393C8.71883 26.8358 8.71883 27.8251 8.27231 28.6217C7.20672 30.5227 7.58051 32.8831 9.18149 34.3618C9.85223 34.9814 10.1581 35.9223 9.97952 36.8177C9.5535 38.9549 10.6385 41.0843 12.6179 41.9959C13.4473 42.3779 14.0289 43.1785 14.1358 44.0852C14.3481 45.8849 15.5529 47.3558 17.1972 47.9474L9.96844 62.7565C9.80917 63.0826 9.83432 63.4686 10.0342 63.7714C10.2341 64.0742 10.5783 64.2511 10.9416 64.2304L17.878 63.8795L21.8689 69.564C22.0618 69.8387 22.3757 70.0002 22.7079 70.0002C22.7348 70.0002 22.7619 69.9991 22.789 69.997C23.1507 69.9684 23.4704 69.7506 23.6295 69.4246L30.852 54.6275C31.8125 54.7433 32.8117 54.5613 33.7086 54.0585C34.5049 53.6121 35.4942 53.6119 36.2909 54.0585C37.015 54.4643 37.8053 54.6614 38.5886 54.6613C38.7942 54.6613 38.999 54.6462 39.2022 54.6193L46.4287 69.4246C46.5879 69.7506 46.9075 69.9684 47.2693 69.997C47.2964 69.9992 47.3234 70.0002 47.3504 70.0002C47.6826 70.0002 47.9965 69.8387 48.1894 69.564L52.1802 63.8795L59.1166 64.2304C59.4779 64.2492 59.8242 64.0741 60.024 63.7714C60.2241 63.4686 60.2491 63.0826 60.0898 62.7565L52.8525 47.9291C54.4711 47.3259 55.6537 45.8667 55.8638 44.0851C55.9707 43.1784 56.5525 42.3779 57.3817 41.9959C59.3611 41.0843 60.4462 38.9549 60.0201 36.8177C59.8415 35.9222 60.1474 34.9813 60.8181 34.3617C62.4189 32.8831 62.7929 30.5225 61.7273 28.6215C61.2809 27.8254 61.2809 26.8359 61.7274 26.0395ZM22.5488 66.9634L19.231 62.2377C19.0285 61.9493 18.693 61.7839 18.34 61.8028L12.5735 62.0945L19.2065 48.5051C19.6948 48.7746 20.0959 49.1954 20.3342 49.7127C20.8213 50.7707 21.6565 51.5724 22.6546 52.0253L20.462 56.5172C20.2136 57.0261 20.4248 57.64 20.9337 57.8884C21.0785 57.9591 21.2317 57.9926 21.3827 57.9926C21.7622 57.9926 22.1271 57.7809 22.305 57.4167L24.7339 52.4403C24.9919 52.4321 25.2521 52.4031 25.5124 52.3513C26.4081 52.1724 27.349 52.4785 27.9684 53.1493C28.2524 53.4568 28.5692 53.7186 28.9088 53.9339L22.5488 66.9634ZM57.4846 62.0945L51.718 61.8029C51.3655 61.7832 51.0295 61.9493 50.827 62.2378L47.5092 66.9635L41.135 53.9044C41.4576 53.6945 41.7594 53.4431 42.0309 53.1492C42.6504 52.4784 43.5914 52.1727 44.4869 52.3511C44.7673 52.407 45.0476 52.4362 45.325 52.4415L47.7534 57.4167C47.9311 57.7808 48.2959 57.9924 48.6756 57.9924C48.8265 57.9924 48.9799 57.9589 49.1247 57.8882C49.6336 57.6398 49.8448 57.026 49.5964 56.5171L47.393 52.0029C48.3697 51.5463 49.1859 50.7533 49.6654 49.7126C49.9112 49.1788 50.3308 48.7487 50.8401 48.4808L57.4846 62.0945ZM59.427 32.8554C58.2354 33.956 57.6923 35.628 58.0094 37.2187C58.2492 38.4218 57.6384 39.6203 56.5243 40.1334C55.051 40.8119 54.0177 42.2341 53.8277 43.845C53.684 45.0633 52.7327 46.0145 51.5145 46.1582C49.9037 46.3482 48.4814 47.3815 47.8029 48.8548C47.2898 49.9691 46.0912 50.5801 44.8881 50.3399C43.2976 50.0231 41.6253 50.566 40.5248 51.7576C39.6925 52.6589 38.3638 52.8693 37.2937 52.2695C36.5861 51.8729 35.7931 51.6745 34.9999 51.6745C34.2068 51.6745 33.4134 51.8729 32.706 52.2694C31.6359 52.8692 30.3073 52.6587 29.4749 51.7576C28.3743 50.5661 26.7023 50.0229 25.1117 50.3399C23.9087 50.5798 22.7101 49.9689 22.197 48.8548C21.5184 47.3815 20.0963 46.3482 18.4853 46.1582C17.267 46.0145 16.3159 45.0632 16.1722 43.845C15.9822 42.2342 14.9488 40.8119 13.4756 40.1333C12.3613 39.6201 11.7507 38.4217 11.9905 37.2185C12.3076 35.6278 11.7644 33.9559 10.5729 32.8553C9.67176 32.023 9.46122 30.6943 10.061 29.6242C10.8542 28.2093 10.8542 26.4514 10.061 25.0364C9.46108 23.9663 9.67163 22.6378 10.5727 21.8053C11.7644 20.7047 12.3074 19.0328 11.9905 17.442C11.7507 16.239 12.3614 15.0404 13.4756 14.5273C14.9488 13.8488 15.9822 12.4266 16.1722 10.8157C16.3159 9.59725 17.2672 8.64624 18.4853 8.50254C20.0962 8.31251 21.5186 7.27919 22.197 5.8059C22.7101 4.69165 23.9084 4.08106 25.1118 4.32086C26.7032 4.63805 28.3745 4.09459 29.4751 2.90309C30.3074 2.00198 31.6362 1.79129 32.7061 2.39135C34.121 3.18446 35.879 3.18446 37.2939 2.39135C38.364 1.79129 39.6925 2.00184 40.5249 2.90309C41.6255 4.09459 43.2972 4.63792 44.8882 4.32086C46.0917 4.08079 47.2897 4.69192 47.8029 5.8059C48.4814 7.27919 49.9036 8.31251 51.5145 8.50254C52.7328 8.64624 53.684 9.59753 53.8277 10.8157C54.0177 12.4265 55.051 13.8489 56.5243 14.5273C57.6386 15.0404 58.2492 16.239 58.0094 17.442C57.6923 19.0328 58.2355 20.7047 59.4271 21.8053C60.3282 22.6376 60.5388 23.9663 59.939 25.0364C59.1458 26.4517 59.1458 28.2096 59.939 29.6244C60.5385 30.6945 60.328 32.0231 59.427 32.8554Z" fill="#6E1F8A"/>
<path d="M51.3677 22.9474C51.3677 21.1731 49.9245 19.7299 48.1504 19.7299H41.1684C41.7576 18.6282 42.5232 17.0199 43.1524 15.1051C43.6329 13.6434 42.8255 12.0546 41.353 11.5638L41.2899 11.5428C39.9404 11.0925 38.4559 11.7302 37.8367 13.0255C36.9314 14.9205 34.9159 18.2808 31.509 19.73H30.84C30.2499 19.0589 29.3862 18.6341 28.4243 18.6341H24.0409C22.2669 18.6341 20.8237 20.0773 20.8237 21.8512V37.1938C20.8237 38.9677 22.2669 40.4109 24.0409 40.4109H28.4243C29.3862 40.4109 30.2499 39.9861 30.84 39.315H44.8629C46.6368 39.315 48.08 37.8718 48.08 36.0979C48.08 35.5007 47.9165 34.9409 47.6318 34.4613C48.5571 33.8957 49.1758 32.8759 49.1758 31.7144C49.1758 31.1172 49.0123 30.5575 48.7276 30.0779C49.6529 29.5123 50.2716 28.4925 50.2716 27.3309C50.2716 26.7337 50.1081 26.174 49.8234 25.6944C50.7489 25.1288 51.3677 24.1089 51.3677 22.9474ZM48.1504 24.1134H44.8627C44.2964 24.1134 43.8373 24.5725 43.8373 25.1388C43.8373 25.705 44.2964 26.1641 44.8627 26.1641H47.0545C47.6977 26.1641 48.221 26.6875 48.221 27.3306C48.221 27.9738 47.6976 28.4971 47.0545 28.4971H43.7668C43.2005 28.4971 42.7414 28.9562 42.7414 29.5225C42.7414 30.0888 43.2005 30.5479 43.7668 30.5479H45.9585C46.6018 30.5479 47.125 31.0713 47.125 31.7144C47.125 32.3575 46.6017 32.8809 45.9585 32.8809H42.671C42.1047 32.8809 41.6456 33.34 41.6456 33.9063C41.6456 34.4725 42.1047 34.9316 42.671 34.9316H44.8627C45.506 34.9316 46.0292 35.455 46.0292 36.0981C46.0292 36.7413 45.5058 37.2646 44.8627 37.2646H31.6415V27.331C31.6415 26.7648 31.1824 26.3057 30.6161 26.3057C30.0498 26.3057 29.5907 26.7648 29.5907 27.331V37.1941C29.5907 37.8373 29.0673 38.3606 28.4242 38.3606H24.0407C23.3975 38.3606 22.8742 37.8372 22.8742 37.1941V21.8511C22.8742 21.2078 23.3976 20.6846 24.0407 20.6846H28.4242C29.0675 20.6846 29.5907 21.208 29.5907 21.8511V22.9469C29.5907 23.5132 30.0498 23.9723 30.6161 23.9723C31.1824 23.9723 31.6415 23.5132 31.6415 22.9469V21.7805H31.712C31.8424 21.7805 31.9716 21.7557 32.0929 21.7071C36.2545 20.0424 38.6374 16.107 39.6871 13.9094C39.8609 13.5456 40.2714 13.365 40.641 13.4879L40.7043 13.5091C41.109 13.6439 41.3333 14.0726 41.2044 14.4649C40.1137 17.7836 38.5456 20.1636 38.5303 20.1865C38.3205 20.5011 38.301 20.9057 38.4793 21.2391C38.6577 21.5725 39.0053 21.7807 39.3834 21.7807H48.1507C48.7939 21.7807 49.3172 22.304 49.3172 22.9472C49.3172 23.5903 48.7937 24.1134 48.1504 24.1134Z" fill="#6E1F8A"/>
<path d="M26.25 36.0277C26.8163 36.0277 27.2754 35.5686 27.2754 35.0023C27.2754 34.436 26.8163 33.9769 26.25 33.9769C25.6837 33.9769 25.2246 34.436 25.2246 35.0023C25.2246 35.5686 25.6837 36.0277 26.25 36.0277Z" fill="#6E1F8A"/>
</g>
<defs>
<clipPath id="clip0">
<rect width="70" height="70" fill="white"/>
</clipPath>
</defs>
</svg>
