<svg width="188" height="27" viewBox="0 0 188 27" fill="none" xmlns="http://www.w3.org/2000/svg">
<path d="M55.092 26.3354H60.6409V11.8213L55.092 4.07178V26.3354Z" fill="#86B4B4"/>
<path d="M72.333 14.9737L77.8819 22.7233V0.459717H72.333V14.9737Z" fill="#86B4B4"/>
<path d="M98.69 0.459717H81.3169V5.45097H94.3302L98.69 0.459717Z" fill="#86B4B4"/>
<path d="M91.0274 21.3441L86.7336 26.3354H104.107V21.3441H91.0274Z" fill="#86B4B4"/>
<path d="M16.3823 12.6751C18.6943 11.887 20.3457 10.0482 20.3457 7.02714C20.3457 2.62697 16.9108 0.525391 11.3619 0.525391H0V26.3354H11.1637C15.7217 26.3354 21.4027 24.9562 21.4027 19.1112C21.4027 15.3021 18.9585 13.3976 16.3823 12.6751ZM5.54884 4.99124H10.8334C13.2776 4.99124 14.7969 5.91068 14.7969 7.94659C14.7969 9.91682 13.2776 10.9019 11.1637 10.9019H5.54884V4.99124ZM11.0977 21.8039H5.54884V15.1708H11.428C13.6739 15.1708 15.8538 15.7618 15.8538 18.5201C15.7878 21.2785 13.6079 21.8039 11.0977 21.8039Z" fill="#6E1F8A"/>
<path d="M37.851 0C28.669 0 24.0449 6.43608 24.0449 13.4632C24.0449 20.4904 28.669 26.9265 37.851 26.9265C47.033 26.9265 51.657 20.4904 51.657 13.4632C51.657 6.37041 47.033 0 37.851 0ZM37.851 21.6725C32.4342 21.6725 29.7259 17.9291 29.7259 13.3976C29.7259 8.86603 32.4342 5.1226 37.851 5.1226C43.2016 5.1226 45.91 8.86603 45.91 13.3976C45.91 17.9291 43.2016 21.6725 37.851 21.6725Z" fill="#6E1F8A"/>
<path d="M117.45 0.459717L106.815 26.2697H112.562L114.478 21.4098H126.368L128.284 26.2697H134.031L123.462 0.459717H117.45V0.459717ZM116.261 16.8783L119.895 7.61822C120.093 7.09283 120.291 6.56743 120.489 5.58232C120.687 6.56743 120.885 7.09283 121.018 7.61822L124.651 16.8783H116.261Z" fill="#6E1F8A"/>
<path d="M151.801 21.5412C151.008 21.8039 150.083 22.0009 148.96 22.0009C145.129 22.0009 140.042 20.2934 140.042 13.3976C140.042 7.35552 144.6 4.92557 149.224 4.92557C151.867 4.92557 154.509 5.64799 156.491 6.8958V1.64186C154.046 0.591069 151.272 0 148.498 0C141.363 0 134.361 4.07181 134.361 13.4632C134.361 22.9203 141.363 26.9265 148.63 26.9265C151.536 26.9265 154.509 26.2697 157.085 25.2189V13.5946L151.801 16.6156V21.5412Z" fill="#6E1F8A"/>
<path d="M174.194 0C165.012 0 160.388 6.43608 160.388 13.4632C160.388 20.4904 165.012 26.9265 174.194 26.9265C183.376 26.9265 188 20.4904 188 13.4632C188 6.37041 183.376 0 174.194 0ZM174.194 21.6725C168.777 21.6725 166.069 17.9291 166.069 13.3976C166.069 8.86603 168.777 5.1226 174.194 5.1226C179.545 5.1226 182.253 8.86603 182.253 13.3976C182.253 17.9291 179.545 21.6725 174.194 21.6725Z" fill="#6E1F8A"/>
<path d="M81.3169 22.3293V26.3354H85.1482L104.107 4.46585V0.459717H100.209L81.3169 22.3293Z" fill="#6E1F8A"/>
<path d="M55.092 0.459229V1.90406L72.6634 26.3349H77.8819V24.8901L60.3106 0.459229H55.092Z" fill="#6E1F8A"/>
</svg>
