<svg width="41" height="45" viewBox="0 0 41 45" fill="none" xmlns="http://www.w3.org/2000/svg">
<path d="M21.1197 38.6554C10.9859 38.6554 2.77073 30.4403 2.77073 20.3064C2.77073 10.1725 10.9859 1.9574 21.1197 1.9574C31.2536 1.9574 39.4688 10.1725 39.4688 20.3064C39.4688 30.4403 31.2536 38.6554 21.1197 38.6554Z" fill="white"/>
<path d="M16.513 7.83789C16.1957 7.83789 15.8795 7.83789 15.5621 7.83789C15.5317 7.85093 15.5034 7.87267 15.4719 7.87701C13.3397 8.19 11.8041 9.94405 11.8019 12.0937C11.7965 16.3103 11.7965 20.527 11.8019 24.7437C11.8052 27.1346 13.6874 29.0071 16.0805 29.0081C21.1655 29.0103 26.2505 29.0092 31.3355 29.0092C31.4083 29.0092 31.4811 29.0092 31.5518 29.0092C31.5518 23.2309 31.5518 17.4819 31.5518 11.7198C31.4496 11.7198 31.3605 11.7198 31.2714 11.7198C27.7231 11.7198 24.1748 11.7198 20.6265 11.7198C20.282 11.7198 20.2896 11.7177 20.2178 11.3775C19.8396 9.58976 18.78 8.4367 17.0086 7.95417C16.8445 7.90962 16.6771 7.87593 16.513 7.83789ZM12.5072 22.3539C12.5072 22.2941 12.5072 22.2343 12.5072 22.1745C12.5072 18.8469 12.5061 15.5192 12.5105 12.1915C12.5105 11.9383 12.5398 11.6829 12.5811 11.4318C12.9006 9.48761 14.9296 8.16283 16.8391 8.64536C18.4975 9.06594 19.5614 10.4353 19.5636 12.1795C19.569 15.5213 19.5647 18.8621 19.5647 22.2039C19.5647 22.255 19.5571 22.306 19.5506 22.4028C18.6627 21.1965 17.5064 20.5466 16.0501 20.5433C14.5819 20.54 13.4179 21.1899 12.5072 22.3539ZM16.0349 21.2541C17.965 21.2519 19.5603 22.8451 19.5625 24.7741C19.5636 26.6988 17.9628 28.3018 16.037 28.3028C14.1145 28.3039 12.5116 26.702 12.5083 24.7752C12.5061 22.8505 14.1026 21.2551 16.0349 21.2541ZM30.8562 28.2365C30.7508 28.1768 30.6856 28.1398 30.6204 28.1018C28.4903 26.8661 26.3603 25.6316 24.2313 24.3959C22.9641 23.6612 21.6958 22.9266 20.4308 22.1887C20.3678 22.1517 20.2841 22.0789 20.282 22.0213C20.27 21.5149 20.2754 21.0084 20.2754 20.4716C20.37 20.5227 20.4352 20.5553 20.4982 20.5922C22.2838 21.6529 24.0694 22.7147 25.856 23.7754C27.4699 24.735 29.0848 25.6935 30.6965 26.6564C30.7595 26.6944 30.8486 26.764 30.8497 26.8216C30.8617 27.2802 30.8562 27.7388 30.8562 28.2365ZM30.8562 17.4688C30.8562 17.8883 30.8486 18.2807 30.8606 18.673C30.8649 18.8175 30.8171 18.8762 30.6823 18.9153C28.1371 19.6532 25.593 20.3977 23.0467 21.1334C22.9565 21.1595 22.8272 21.1367 22.7435 21.0889C22.1762 20.7639 21.6176 20.4259 21.0557 20.0912C20.9992 20.0575 20.9449 20.0195 20.8656 19.9673C24.2074 19.1316 27.5166 18.3035 30.8562 17.4688ZM20.2494 12.4817C20.2635 12.4632 20.2787 12.4447 20.2928 12.4273C21.0155 12.4273 21.7382 12.4241 22.4609 12.4317C22.5707 12.4328 22.6935 12.4643 22.7881 12.5197C25.2083 13.9271 27.6263 15.3388 30.0444 16.7494C30.1074 16.7863 30.1683 16.8276 30.2552 16.8809C29.6119 17.0428 28.9989 17.1906 28.3893 17.3536C28.2415 17.3928 28.1317 17.3645 28.0067 17.2884C27.1395 16.7548 26.269 16.2267 25.3996 15.6963C23.7422 14.6867 22.0849 13.6793 20.4298 12.6664C20.358 12.6229 20.3091 12.5447 20.2494 12.4817ZM29.4945 28.2789C29.4369 28.2941 29.4195 28.3039 29.4021 28.3039C28.5403 28.305 27.6796 28.3072 26.8178 28.3017C26.7417 28.3017 26.6591 28.2637 26.5896 28.2246C26.0103 27.8931 25.4332 27.5584 24.8562 27.2237C23.3858 26.3717 21.9154 25.5207 20.4472 24.6654C20.3787 24.6252 20.283 24.5502 20.282 24.4894C20.2689 23.9829 20.2744 23.4754 20.2744 22.9299C23.3586 24.7187 26.4124 26.4901 29.4945 28.2789ZM20.2754 13.413C22.6 14.8291 24.8855 16.2201 27.2145 17.6395C26.5852 17.7992 26.0147 17.9448 25.4419 18.0839C25.3909 18.0959 25.3202 18.0709 25.2702 18.0416C23.6412 17.0667 22.0132 16.0897 20.3863 15.1095C20.3363 15.079 20.2798 15.0095 20.2787 14.9573C20.2722 14.4552 20.2754 13.9542 20.2754 13.413ZM18.3845 28.2952C18.9192 27.9236 19.3147 27.5073 19.6288 27.0139C19.944 26.5173 20.1287 25.9695 20.2385 25.374C21.9208 26.3488 23.576 27.3074 25.2822 28.2952C22.9608 28.2952 20.7058 28.2952 18.3845 28.2952ZM23.7542 21.6768C26.1364 20.9813 28.4838 20.2977 30.8464 19.6076C30.8464 20.0803 30.8464 20.5259 30.8464 20.9726C30.8062 20.99 30.7693 21.0095 30.7302 21.0215C28.9935 21.5638 27.2579 22.1061 25.5202 22.6419C25.455 22.6614 25.3604 22.6419 25.2996 22.6071C24.8344 22.3397 24.3747 22.0637 23.9139 21.7887C23.8694 21.7627 23.8292 21.7301 23.7542 21.6768ZM30.8562 16.3929C28.5849 15.0671 26.3537 13.7662 24.1226 12.4643C24.904 12.4273 25.6691 12.4262 26.4331 12.4295C26.4852 12.4295 26.5428 12.4469 26.5874 12.474C27.9763 13.3261 29.3652 14.1792 30.7508 15.0366C30.7997 15.0671 30.8497 15.1399 30.8508 15.1942C30.8606 15.5779 30.8562 15.9626 30.8562 16.3929ZM30.8562 21.7311C30.8562 22.2647 30.8508 22.7734 30.8595 23.282C30.8617 23.4222 30.8193 23.4852 30.6867 23.5341C29.9455 23.8047 29.2098 24.0883 28.4686 24.3568C28.3882 24.3861 28.2654 24.3698 28.1893 24.3264C27.5948 23.9829 27.0058 23.6276 26.4168 23.2754C26.3733 23.2494 26.3331 23.2168 26.2614 23.1668C27.81 22.6821 29.325 22.2093 30.8562 21.7311ZM24.3867 18.3459C23.7564 18.5056 23.188 18.6512 22.6163 18.7893C22.5653 18.8012 22.4946 18.7751 22.4435 18.7469C21.7556 18.3567 21.0699 17.9644 20.3852 17.5688C20.3385 17.5417 20.2809 17.483 20.2798 17.4384C20.2722 16.932 20.2754 16.4245 20.2754 15.8789C21.6469 16.7027 22.988 17.5069 24.3867 18.3459ZM30.8443 12.4338C30.8443 13.0424 30.8443 13.6282 30.8443 14.2498C29.8618 13.6456 28.9044 13.0566 27.9469 12.4675C27.9524 12.4567 27.9578 12.4458 27.9643 12.4338C28.9185 12.4338 29.8727 12.4338 30.8443 12.4338ZM30.8399 24.2383C30.8399 24.8056 30.8399 25.3425 30.8399 25.9076C30.2618 25.5631 29.7075 25.2338 29.1196 24.8839C29.7151 24.66 30.265 24.4535 30.8399 24.2383ZM21.5426 19.0588C21.0883 19.1718 20.6906 19.2707 20.2874 19.3718C20.2874 19.0284 20.2874 18.698 20.2874 18.3415C20.7036 18.5795 21.0981 18.8045 21.5426 19.0588Z" fill="#6E1F8A"/>
<path d="M16.0336 27.2487C17.4062 27.2519 18.4941 26.1673 18.5038 24.7871C18.5136 23.4004 17.4279 22.3082 16.038 22.3071C14.6502 22.306 13.5569 23.4004 13.5645 24.7828C13.5721 26.1608 14.6578 27.2465 16.0336 27.2487ZM16.0358 26.5314C15.061 26.5325 14.2774 25.7489 14.2774 24.7752C14.2785 23.8047 15.0664 23.0146 16.0347 23.0146C17.0019 23.0146 17.7942 23.808 17.7942 24.7752C17.7953 25.7468 17.0106 26.5303 16.0358 26.5314Z" fill="#6E1F8A"/>
<path d="M35.3617 6.18175C27.9999 -1.12678 16.9214 -1.86904 8.86301 4.18101C0.315574 10.5973 -1.6091 22.9028 4.56266 31.6002C6.57427 34.4345 9.14122 36.5885 12.232 38.1719C13.1655 38.6501 13.998 39.3565 14.812 40.0357C16.5073 41.4507 18.1614 42.9145 19.8274 44.3632C20.6088 45.0424 21.2076 45.0555 21.9857 44.3828C24.0104 42.6309 26.0274 40.8703 28.0651 39.1348C28.4455 38.8109 28.8878 38.537 29.341 38.3262C37.232 34.6671 41.8617 26.4641 40.8662 17.8276C40.3326 13.2023 38.3699 9.25513 35.3617 6.18175ZM32.9632 32.124C26.4458 38.699 15.6673 38.7533 9.09014 32.2457C2.37717 25.6045 2.30001 14.8618 8.91735 8.17162C15.4771 1.54016 26.2687 1.47495 32.8697 8.02817C39.6077 14.7194 39.6501 25.3795 32.9632 32.124Z" fill="#6E1F8A"/>
</svg>
