<svg width="70" height="70" viewBox="0 0 70 70" fill="none" xmlns="http://www.w3.org/2000/svg">
<g clip-path="url(#clip0)">
<path d="M66.6631 41.0011H65.6155V31.5654C65.6155 30.0717 64.8721 28.749 63.7366 27.9454V26.6607C63.7366 24.7971 62.2205 23.281 60.3569 23.281H59.5747L62.5674 18.8896C63.5705 17.4177 63.189 15.4039 61.7171 14.4007L41.4102 0.562016C40.6972 0.0759808 39.8378 -0.103394 38.9896 0.0575238C38.1418 0.218168 37.4072 0.699282 36.9213 1.41241L19.3938 27.1323H14.5163L15.6931 15.22C15.7063 15.0858 15.7936 14.9694 15.9153 14.9236C17.4313 14.352 18.7452 13.2845 19.6147 11.9179C19.6832 11.8103 19.8124 11.7488 19.9461 11.7623L27.5962 12.5181C28.1447 12.5713 28.6327 12.1718 28.6868 11.6235C28.741 11.0753 28.3405 10.5871 27.7923 10.5329L20.1422 9.77713C19.2542 9.69018 18.4074 10.0994 17.9316 10.847C17.2923 11.8518 16.3262 12.6366 15.2116 13.0569C14.3725 13.3732 13.7964 14.1268 13.7078 15.0239L12.5118 27.1322H11.2399L13.1009 8.29182C13.1679 7.61369 13.7731 7.11549 14.4521 7.18344L29.9114 8.71059C30.4597 8.7635 30.9479 8.36428 31.002 7.81604C31.0562 7.2678 30.6557 6.77957 30.1075 6.72543L14.6481 5.19828C12.8757 5.02342 11.2907 6.32293 11.1156 8.09563L9.61553 23.281H7.06094C5.19746 23.281 3.68125 24.7971 3.68125 26.6607V27.537C2.1567 28.2389 1.09521 29.78 1.09521 31.5654V65.5667C1.09521 68.0112 3.08393 70 5.52859 70H61.1823C63.6268 70 65.6155 68.0112 65.6155 65.5667V56.1312H66.6631C67.8996 56.1312 68.9054 55.1254 68.9054 53.889V43.2434C68.9055 42.0069 67.8996 41.0011 66.6631 41.0011ZM60.3569 25.276C61.1206 25.2758 61.7417 25.8971 61.7417 26.6608V27.169C61.5583 27.1457 61.3719 27.1325 61.1823 27.1325H56.9502L58.2152 25.276H60.3569ZM38.5697 2.53569C38.7556 2.26293 39.0366 2.07891 39.3609 2.01739C39.4384 2.00276 39.5162 1.99538 39.5934 1.99538C39.8391 1.99538 40.0792 2.06893 40.2867 2.2103L60.5937 16.049C61.1567 16.4327 61.3027 17.203 60.9191 17.766L54.5363 27.1321H53.0045L56.1338 22.5401C56.6413 21.7954 56.6831 20.8477 56.2426 20.0666C55.6572 19.0289 55.4199 17.807 55.5744 16.6259C55.6892 15.7472 55.3026 14.8895 54.5654 14.3872L44.0383 7.21325C43.301 6.7108 42.3612 6.66473 41.5854 7.09307C40.5429 7.66866 39.3189 7.89465 38.139 7.7295C37.264 7.60672 36.3766 8.00184 35.8766 8.73534L23.3396 27.1322H21.8078L38.5697 2.53569ZM39.009 19.4739C34.6653 19.4739 31.0996 22.8608 30.8091 27.1322H25.7534L37.5247 9.85875C37.5249 9.85875 37.5249 9.85875 37.5249 9.85875C37.5917 9.76045 37.7026 9.70194 37.8165 9.70194C37.8317 9.70194 37.8469 9.70303 37.862 9.70508C39.4668 9.92957 41.1314 9.6225 42.5494 8.83952C42.661 8.77772 42.8043 8.7866 42.9147 8.8618L53.442 16.0358C53.5521 16.111 53.6127 16.2412 53.5963 16.3675C53.3862 17.9738 53.7091 19.6355 54.5052 21.0467C54.5691 21.1601 54.5613 21.3053 54.4855 21.4167L50.5907 27.1321H47.2092C46.9184 22.8608 43.3529 19.4739 39.009 19.4739ZM45.2089 27.1323H32.8092C33.0949 23.962 35.7656 21.4689 39.009 21.4689C42.2525 21.4688 44.9233 23.962 45.2089 27.1323ZM5.67611 26.6607C5.67611 25.897 6.29723 25.2757 7.06094 25.2757H9.41852L9.23518 27.1322H5.67611V26.6607ZM3.09008 31.5654C3.09008 30.221 4.18397 29.1271 5.52859 29.1271H61.1823C62.5269 29.1271 63.6207 30.221 63.6207 31.5654V34.3332H3.09008V31.5654ZM63.6207 65.5667C63.6207 66.9112 62.5269 68.0051 61.1823 68.0051H5.52859C4.18397 68.0051 3.09008 66.9112 3.09008 65.5667V62.799H8.46887C9.01984 62.799 9.46623 62.3525 9.46623 61.8016C9.46623 61.2508 9.01971 60.8043 8.46887 60.8043H3.09008V36.328H63.6207V41.0011H54.137H54.1369C51.1488 41.0011 48.5604 42.7429 47.332 45.2641C47.3279 45.2726 47.3232 45.2808 47.319 45.2893C47.3086 45.3107 47.2996 45.333 47.2895 45.3546C47.1432 45.6654 47.016 45.9871 46.9125 46.319C46.9123 46.32 46.912 46.3208 46.9117 46.3218C46.6909 47.0312 46.5718 47.7849 46.5718 48.5662C46.5718 52.7376 49.9655 56.1312 54.1368 56.1312H54.1369H63.6205V60.8043H14.8555C14.3046 60.8043 13.8582 61.2508 13.8582 61.8016C13.8582 62.3525 14.3047 62.799 14.8555 62.799H63.6207V65.5667ZM66.9107 53.8889C66.9107 54.0253 66.7997 54.1363 66.6631 54.1363H54.1372C52.0255 54.1363 50.1845 52.9552 49.2402 51.219C49.1972 51.1402 49.1562 51.06 49.117 50.979C49.0387 50.8167 48.968 50.65 48.9055 50.4794C48.6865 49.8825 48.567 49.238 48.567 48.5662C48.567 47.8943 48.6866 47.2498 48.9055 46.6529C48.9681 46.4824 49.0388 46.3158 49.117 46.1533C49.1562 46.0723 49.1972 45.9921 49.2402 45.9133C50.1845 44.1771 52.0255 42.996 54.1372 42.996H66.6631C66.7995 42.996 66.9107 43.107 66.9107 43.2434V53.8889Z" fill="#6E1F8A"/>
<path d="M54.3706 44.5193C52.1391 44.5193 50.3237 46.3348 50.3237 48.5662C50.3237 50.7976 52.1391 52.613 54.3706 52.613C56.6021 52.613 58.4175 50.7976 58.4175 48.5662C58.4175 46.3348 56.6021 44.5193 54.3706 44.5193ZM54.3706 50.6181C53.2391 50.6181 52.3186 49.6976 52.3186 48.5662C52.3186 47.4349 53.2391 46.5142 54.3706 46.5142C55.5021 46.5142 56.4226 47.4347 56.4226 48.5662C56.4226 49.6977 55.5021 50.6181 54.3706 50.6181Z" fill="#6E1F8A"/>
</g>
<defs>
<clipPath id="clip0">
<rect width="70" height="70" fill="white"/>
</clipPath>
</defs>
</svg>
