<svg width="19" height="19" viewBox="0 0 19 19" fill="none" xmlns="http://www.w3.org/2000/svg">
<path d="M18.794 17.8297L14.7651 13.7911C16.047 12.2766 16.7566 10.3949 16.7566 8.3756C16.7566 3.7633 13.0024 0 8.37835 0C3.75428 0 0 3.7633 0 8.3756C0 12.9879 3.75423 16.7512 8.3783 16.7512C10.3928 16.7512 12.2699 16.0399 13.7807 14.7548L17.8325 18.7935C17.9699 18.9312 18.153 19 18.3132 19C18.4964 19 18.6566 18.9312 18.7939 18.7935C19.0687 18.5181 19.0687 18.0821 18.794 17.8297ZM13.3229 13.3321C11.9952 14.6401 10.2554 15.3744 8.3783 15.3744C4.50962 15.3744 1.3735 12.2307 1.3735 8.3756C1.3735 4.52055 4.50962 1.37681 8.3783 1.37681C12.247 1.37681 15.3831 4.52055 15.3831 8.3756C15.3831 10.2573 14.6506 12.0242 13.3229 13.3321Z" fill="#222222"/>
</svg>
