<svg width="21" height="21" viewBox="0 0 21 21" fill="none" xmlns="http://www.w3.org/2000/svg">
<path d="M14.2413 12.3544L11.3133 10.1584V5.68517C11.3133 5.23539 10.9498 4.87183 10.5 4.87183C10.0502 4.87183 9.68665 5.23539 9.68665 5.68517V10.5651C9.68665 10.8213 9.80703 11.0629 10.012 11.2158L13.2653 13.6558C13.4116 13.7656 13.5825 13.8184 13.7524 13.8184C14.0005 13.8184 14.2445 13.707 14.4039 13.4923C14.674 13.1336 14.6008 12.6236 14.2413 12.3544Z" fill="#6E1F8A"/>
<path d="M10.5 0C4.70995 0 0 4.70995 0 10.5C0 16.2901 4.70995 21 10.5 21C16.2901 21 21 16.2901 21 10.5C21 4.70995 16.2901 0 10.5 0ZM10.5 19.3734C5.60786 19.3734 1.62664 15.3921 1.62664 10.5C1.62664 5.60786 5.60786 1.62664 10.5 1.62664C15.393 1.62664 19.3734 5.60786 19.3734 10.5C19.3734 15.3921 15.3921 19.3734 10.5 19.3734Z" fill="#6E1F8A"/>
</svg>
